<mxfile host="Electron" modified="2023-11-24T03:44:38.103Z" agent="Mozilla/5.0 (X11; Linux x86_64) AppleWebKit/537.36 (KHTML, like Gecko) draw.io/22.0.3 Chrome/114.0.5735.289 Electron/25.8.4 Safari/537.36" etag="AzdCeOO_Fl-C5DuP4QxC" version="22.0.3" type="device">
  <diagram name="Page-1" id="NCyiCQJ6UaHsbNuL92EZ">
    <mxGraphModel dx="880" dy="-647" grid="1" gridSize="10" guides="1" tooltips="1" connect="1" arrows="1" fold="1" page="1" pageScale="1" pageWidth="827" pageHeight="1169" math="0" shadow="0">
      <root>
        <mxCell id="0" />
        <mxCell id="1" parent="0" />
        <mxCell id="E4XX-eTBdugUKdkHdWyO-1" value="" style="rounded=0;whiteSpace=wrap;html=1;fillColor=#e1d5e7;strokeColor=#9673a6;" parent="1" vertex="1">
          <mxGeometry x="40" y="1200" width="760" height="400" as="geometry" />
        </mxCell>
        <mxCell id="E4XX-eTBdugUKdkHdWyO-2" value="DTO" style="text;html=1;strokeColor=none;fillColor=none;align=center;verticalAlign=middle;whiteSpace=wrap;rounded=0;" parent="1" vertex="1">
          <mxGeometry x="40" y="1200" width="60" height="30" as="geometry" />
        </mxCell>
        <mxCell id="E4XX-eTBdugUKdkHdWyO-3" value="RegisterUserRequest" style="swimlane;childLayout=stackLayout;horizontal=1;startSize=50;horizontalStack=0;rounded=1;fontSize=14;fontStyle=0;strokeWidth=2;resizeParent=0;resizeLast=1;shadow=0;dashed=0;align=center;arcSize=4;whiteSpace=wrap;html=1;fillColor=#d0cee2;strokeColor=#56517e;" parent="1" vertex="1">
          <mxGeometry x="110" y="1220" width="160" height="195" as="geometry" />
        </mxCell>
        <mxCell id="E4XX-eTBdugUKdkHdWyO-4" value="+Name&lt;br&gt;+Nick&lt;br&gt;+Province&lt;br&gt;+Township&lt;br&gt;+Address&lt;br&gt;+PhoneNumber&lt;br&gt;+Password&lt;br&gt;+Roles&lt;br&gt;+Code" style="align=left;strokeColor=none;fillColor=none;spacingLeft=4;fontSize=12;verticalAlign=top;resizable=0;rotatable=0;part=1;html=1;" parent="E4XX-eTBdugUKdkHdWyO-3" vertex="1">
          <mxGeometry y="50" width="160" height="145" as="geometry" />
        </mxCell>
        <mxCell id="E4XX-eTBdugUKdkHdWyO-5" value="LoginRequest" style="swimlane;childLayout=stackLayout;horizontal=1;startSize=50;horizontalStack=0;rounded=1;fontSize=14;fontStyle=0;strokeWidth=2;resizeParent=0;resizeLast=1;shadow=0;dashed=0;align=center;arcSize=4;whiteSpace=wrap;html=1;fillColor=#d0cee2;strokeColor=#56517e;" parent="1" vertex="1">
          <mxGeometry x="340" y="1225" width="160" height="90" as="geometry" />
        </mxCell>
        <mxCell id="E4XX-eTBdugUKdkHdWyO-6" value="+Nick&lt;br&gt;+Password" style="align=left;strokeColor=none;fillColor=none;spacingLeft=4;fontSize=12;verticalAlign=top;resizable=0;rotatable=0;part=1;html=1;" parent="E4XX-eTBdugUKdkHdWyO-5" vertex="1">
          <mxGeometry y="50" width="160" height="40" as="geometry" />
        </mxCell>
        <mxCell id="E4XX-eTBdugUKdkHdWyO-7" value="AddRoleRequest" style="swimlane;childLayout=stackLayout;horizontal=1;startSize=50;horizontalStack=0;rounded=1;fontSize=14;fontStyle=0;strokeWidth=2;resizeParent=0;resizeLast=1;shadow=0;dashed=0;align=center;arcSize=4;whiteSpace=wrap;html=1;fillColor=#d0cee2;strokeColor=#56517e;" parent="1" vertex="1">
          <mxGeometry x="340" y="1345" width="160" height="90" as="geometry" />
        </mxCell>
        <mxCell id="E4XX-eTBdugUKdkHdWyO-8" value="+Id&lt;br&gt;+List&amp;lt;RoleType&amp;gt;" style="align=left;strokeColor=none;fillColor=none;spacingLeft=4;fontSize=12;verticalAlign=top;resizable=0;rotatable=0;part=1;html=1;" parent="E4XX-eTBdugUKdkHdWyO-7" vertex="1">
          <mxGeometry y="50" width="160" height="40" as="geometry" />
        </mxCell>
        <mxCell id="E4XX-eTBdugUKdkHdWyO-17" value="RegisterDeckRequest" style="swimlane;childLayout=stackLayout;horizontal=1;startSize=50;horizontalStack=0;rounded=1;fontSize=14;fontStyle=0;strokeWidth=2;resizeParent=0;resizeLast=1;shadow=0;dashed=0;align=center;arcSize=4;whiteSpace=wrap;html=1;fillColor=#d0cee2;strokeColor=#56517e;" parent="1" vertex="1">
          <mxGeometry x="110" y="1430" width="160" height="150" as="geometry" />
        </mxCell>
        <mxCell id="E4XX-eTBdugUKdkHdWyO-18" value="+Name&lt;br&gt;+Archetype&lt;br&gt;+MainDeckSize&lt;br&gt;+SideDeckSize&lt;br&gt;+ExtraDeckSize&lt;br&gt;+User" style="align=left;strokeColor=none;fillColor=none;spacingLeft=4;fontSize=12;verticalAlign=top;resizable=0;rotatable=0;part=1;html=1;" parent="E4XX-eTBdugUKdkHdWyO-17" vertex="1">
          <mxGeometry y="50" width="160" height="100" as="geometry" />
        </mxCell>
        <mxCell id="aDrLvqmBJxFPmkoHVzF--3" value="CreateTournamentRequest" style="swimlane;childLayout=stackLayout;horizontal=1;startSize=50;horizontalStack=0;rounded=1;fontSize=14;fontStyle=0;strokeWidth=2;resizeParent=0;resizeLast=1;shadow=0;dashed=0;align=center;arcSize=4;whiteSpace=wrap;html=1;fillColor=#d0cee2;strokeColor=#56517e;" vertex="1" parent="1">
          <mxGeometry x="570" y="1215" width="190" height="120" as="geometry" />
        </mxCell>
        <mxCell id="aDrLvqmBJxFPmkoHVzF--4" value="+Name&lt;br&gt;+Address&lt;br&gt;+StartDate&lt;br&gt;+User" style="align=left;strokeColor=none;fillColor=none;spacingLeft=4;fontSize=12;verticalAlign=top;resizable=0;rotatable=0;part=1;html=1;" vertex="1" parent="aDrLvqmBJxFPmkoHVzF--3">
          <mxGeometry y="50" width="190" height="70" as="geometry" />
        </mxCell>
        <mxCell id="aDrLvqmBJxFPmkoHVzF--5" value="MatchResultInfo" style="swimlane;childLayout=stackLayout;horizontal=1;startSize=50;horizontalStack=0;rounded=1;fontSize=14;fontStyle=0;strokeWidth=2;resizeParent=0;resizeLast=1;shadow=0;dashed=0;align=center;arcSize=4;whiteSpace=wrap;html=1;fillColor=#d0cee2;strokeColor=#56517e;" vertex="1" parent="1">
          <mxGeometry x="340" y="1455" width="160" height="120" as="geometry" />
        </mxCell>
        <mxCell id="aDrLvqmBJxFPmkoHVzF--6" value="+Match&lt;br&gt;+User&lt;br&gt;+UserOneResult&lt;br&gt;+UserTwoResult" style="align=left;strokeColor=none;fillColor=none;spacingLeft=4;fontSize=12;verticalAlign=top;resizable=0;rotatable=0;part=1;html=1;" vertex="1" parent="aDrLvqmBJxFPmkoHVzF--5">
          <mxGeometry y="50" width="160" height="70" as="geometry" />
        </mxCell>
        <mxCell id="aDrLvqmBJxFPmkoHVzF--7" value="RequestInfo" style="swimlane;childLayout=stackLayout;horizontal=1;startSize=50;horizontalStack=0;rounded=1;fontSize=14;fontStyle=0;strokeWidth=2;resizeParent=0;resizeLast=1;shadow=0;dashed=0;align=center;arcSize=4;whiteSpace=wrap;html=1;fillColor=#d0cee2;strokeColor=#56517e;" vertex="1" parent="1">
          <mxGeometry x="570" y="1345" width="190" height="120" as="geometry" />
        </mxCell>
        <mxCell id="aDrLvqmBJxFPmkoHVzF--8" value="+User&lt;br&gt;+Tournament&lt;br&gt;+Date&lt;br&gt;+Deck" style="align=left;strokeColor=none;fillColor=none;spacingLeft=4;fontSize=12;verticalAlign=top;resizable=0;rotatable=0;part=1;html=1;" vertex="1" parent="aDrLvqmBJxFPmkoHVzF--7">
          <mxGeometry y="50" width="190" height="70" as="geometry" />
        </mxCell>
        <mxCell id="aDrLvqmBJxFPmkoHVzF--9" value="ChangeRequestInfo" style="swimlane;childLayout=stackLayout;horizontal=1;startSize=50;horizontalStack=0;rounded=1;fontSize=14;fontStyle=0;strokeWidth=2;resizeParent=0;resizeLast=1;shadow=0;dashed=0;align=center;arcSize=4;whiteSpace=wrap;html=1;fillColor=#d0cee2;strokeColor=#56517e;" vertex="1" parent="1">
          <mxGeometry x="570" y="1475" width="190" height="110" as="geometry" />
        </mxCell>
        <mxCell id="aDrLvqmBJxFPmkoHVzF--10" value="+Request&lt;br&gt;+User&lt;br&gt;+Status" style="align=left;strokeColor=none;fillColor=none;spacingLeft=4;fontSize=12;verticalAlign=top;resizable=0;rotatable=0;part=1;html=1;" vertex="1" parent="aDrLvqmBJxFPmkoHVzF--9">
          <mxGeometry y="50" width="190" height="60" as="geometry" />
        </mxCell>
      </root>
    </mxGraphModel>
  </diagram>
</mxfile>
